<?xml version="1.0" encoding="UTF-8"?>
<svg id="Layer_2" data-name="Layer 2" xmlns="http://www.w3.org/2000/svg" viewBox="0 0 501.24 297.03">
  <defs>
    <style>
      .cls-1 {
        fill: #0069dc;
      }

      .cls-1, .cls-2 {
        stroke-width: 0px;
      }

      .cls-2 {
        fill: #c6c1ea;
      }
    </style>
  </defs>
  <g id="Layer_1-2" data-name="Layer 1">
    <g>
      <path class="cls-1" d="m155.5,173.25h-7.42c-7.13,0-10.89-3.57-10.89-10.31v-.29c0-6.46,3.76-9.73,10.89-9.73h38.07c7.33,0,10.89,3.28,10.89,9.73v.29c0,6.75-3.57,10.31-10.89,10.31h-7.04v31.61c0,7.13-3.76,10.89-10.51,10.89h-3.37c-6.46,0-9.74-3.76-9.74-10.89v-31.61Z"/>
      <path class="cls-1" d="m201.47,163.33c0-7.32,3.47-10.89,9.93-10.89h3.37c6.75,0,10.31,3.57,10.31,10.89v41.54c0,7.13-3.57,10.89-10.31,10.89h-3.37c-6.46,0-9.93-3.76-9.93-10.89v-41.54Z"/>
      <path class="cls-1" d="m232.41,204.87v-42.02c0-7.13,3.57-10.41,9.35-10.41h1.93c5.3,0,6.84,1.35,9.93,4.82l18.51,22.55v-16.48c0-7.13,3.57-10.89,10.31-10.89h1.93c6.46,0,9.93,3.76,9.93,10.89v42.02c0,7.13-3.57,10.41-9.35,10.41h-1.93c-5.3,0-6.94-1.25-9.93-4.82l-18.51-22.07v16c0,7.13-3.57,10.89-10.31,10.89h-1.93c-6.46,0-9.93-3.76-9.93-10.89Z"/>
      <path class="cls-1" d="m318.28,204.87v-13.59l-21.4-29.88c-.67-1.16,3.28-8.77,15.42-8.77,3.95,0,7.81,2.31,10.99,8.19l6.75,12.24,7.23-12.24c3.47-6.07,7.23-8.29,11.08-8.29,10.89,0,15.33,7.9,14.65,8.87l-21.11,29.88v13.59c0,7.13-3.57,10.89-10.31,10.89h-3.37c-6.46,0-9.93-3.76-9.93-10.89Z"/>
      <path class="cls-1" d="m18.31,253.57h-7.42c-7.13,0-10.89-3.57-10.89-10.31v-.29c0-6.46,3.76-9.73,10.89-9.73h38.07c7.33,0,10.89,3.28,10.89,9.73v.29c0,6.75-3.57,10.31-10.89,10.31h-7.04v31.61c0,7.13-3.76,10.89-10.51,10.89h-3.37c-6.46,0-9.73-3.76-9.73-10.89v-31.61Z"/>
      <path class="cls-1" d="m63.7,282.19v-35.85c0-8.67,4.14-13.11,11.95-13.11h19.95c18.31,0,27.18,7.52,27.18,21.3,0,7.9-3.47,14.07-10.31,17.35l-1.25.58,12.63,15.81c.67.87-3.28,7.81-13.4,7.81-7.61,0-11.08-3.28-16-10.12l-6.17-8.48h-.96v7.71c0,7.13-3.57,10.89-10.31,10.89h-3.37c-6.46,0-9.93-5.2-9.93-13.88Zm29.01-20.14c4.34,0,6.55-1.93,6.55-5.59s-2.02-5.69-6.65-5.69h-5.69v11.28h5.78Z"/>
      <path class="cls-1" d="m126.34,289.32l19.37-50.22c1.06-3.66,4.15-6.36,14.75-6.36s13.2,2.7,14.27,6.36l20.43,49.93c.87,2.12-5.49,7.52-12.53,7.52-4.92,0-10.12-2.7-13.4-11.18l-.1-.19h-17.73l-.19.48c-2.89,8.1-7.81,10.99-12.82,10.99-6.36,0-12.82-5.2-12.05-7.32Zm38.94-20.72l-5.2-14.17-5.21,14.17h10.41Z"/>
      <path class="cls-1" d="m227.73,231.78c9.25,0,15.52,2.41,19.47,5.59,3.86,3.28,5.49,7.32,5.49,10.7,0,9.64-13.2,11.95-13.59,11.28-1.83-3.76-5.01-5.88-9.93-5.88-5.88,0-10.51,4.05-10.51,10.89s4.63,10.99,10.51,10.99c4.91,0,8.1-2.12,9.93-5.88.39-.67,13.59,1.64,13.59,11.28,0,3.37-1.64,7.42-5.49,10.7-3.95,3.18-10.22,5.59-19.47,5.59-19.86,0-33.25-13.59-33.25-32.67s13.4-32.58,33.25-32.58Z"/>
      <path class="cls-1" d="m256.93,243.64c0-7.32,3.47-10.89,9.93-10.89h3.37c6.75,0,10.31,3.57,10.31,10.89v14.75l10.51-17.64c3.85-5.98,8.58-8,12.82-8,7.61,0,14.36,6.94,13.59,8.48l-14.94,22.65,15.9,23.81c.77,1.54-6.17,8.38-14.36,8.38-4.34,0-8.96-2.02-12.92-8l-10.6-17.25v14.36c0,7.13-3.57,10.89-10.31,10.89h-3.37c-6.46,0-9.93-3.76-9.93-10.89v-41.54Z"/>
      <path class="cls-1" d="m322.56,282.67v-36.34c0-8.67,4.14-13.11,11.95-13.11h31.81c7.52,0,10.89,2.79,10.89,8.96v.48c0,6.46-3.37,8.87-10.89,8.87h-20.14v4.14h11.85c7.81,0,10.89,2.31,10.89,8v.29c0,6.07-3.18,8.58-10.89,8.58h-11.85v4.92h20.53c7.52,0,10.89,2.22,10.89,8.29v.48c0,6.46-3.37,9.35-10.89,9.35h-32.19c-7.81,0-11.95-4.24-11.95-12.92Z"/>
      <path class="cls-1" d="m382.41,282.19v-35.85c0-8.67,4.14-13.11,11.95-13.11h19.95c18.31,0,27.18,7.52,27.18,21.3,0,7.9-3.47,14.07-10.31,17.35l-1.25.58,12.63,15.81c.67.87-3.28,7.81-13.4,7.81-7.61,0-11.08-3.28-16-10.12l-6.17-8.48h-.96v7.71c0,7.13-3.57,10.89-10.31,10.89h-3.37c-6.46,0-9.93-5.2-9.93-13.88Zm29.01-20.14c4.34,0,6.55-1.93,6.55-5.59s-2.02-5.69-6.65-5.69h-5.69v11.28h5.78Z"/>
      <path class="cls-1" d="m445.44,284.02c0-5.3,6.46-11.47,7.23-10.89,4.24,2.99,12.53,6.07,18.31,6.07,4.72,0,6.46-.77,6.46-2.7,0-2.41-3.85-2.6-9.16-3.66-10.7-2.12-21.49-6.46-21.49-19.57,0-13.78,9.64-21.49,28.43-21.49,8.87,0,14.94,1.35,18.89,3.57,3.95,2.22,5.69,5.2,5.69,8.67,0,6.27-7.42,11.95-7.9,11.57-4.53-3.47-11.08-5.98-16.39-5.98-4.63,0-6.27.77-6.27,2.7,0,2.12,4.43,2.22,10.02,3.37,13.01,2.8,21.98,8.19,21.98,19.37,0,14.55-9.64,21.98-30.26,21.98-9.83,0-16.29-1.45-20.14-3.76-3.95-2.41-5.4-5.69-5.4-9.25Z"/>
    </g>
    <g>
      <circle class="cls-2" cx="250.62" cy="64.11" r="64.1"/>
      <path class="cls-2" d="m291.63,52.46c-.96-3.38-3.95-5.64-7.27-5.83-8.12-15.72-26.44-24.08-44.12-19.06s-28.86,21.77-27.51,39.41c-2.73,1.91-4.08,5.4-3.12,8.79s3.95,5.64,7.27,5.83c8.12,15.72,26.44,24.08,44.12,19.06,17.68-5.02,28.86-21.77,27.51-39.41,2.73-1.91,4.08-5.4,3.12-8.79Z"/>
      <g>
        <path class="cls-1" d="m261.73,103.23c-9.08,2.58-18.82,1.91-27.45-1.88-7.69-3.38-14.16-9.07-18.47-16.2-.4-.67-1.04-1.16-1.78-1.4-3.34-1.09-6-3.78-6.99-7.26s-.14-7.17,2.13-9.85c.51-.6.79-1.35.78-2.13-.08-8.32,2.43-16.57,7.2-23.49,5.34-7.76,13.28-13.45,22.36-16.03,9.08-2.58,18.82-1.91,27.45,1.88,7.69,3.38,14.16,9.07,18.47,16.2.4.67,1.04,1.16,1.78,1.4,3.34,1.09,6,3.78,6.99,7.26.99,3.48.14,7.17-2.13,9.85-.51.6-.79,1.35-.78,2.13.08,8.32-2.43,16.57-7.2,23.49-5.34,7.76-13.29,13.45-22.36,16.03Zm-20.76-73.09c-16.1,4.57-26.85,19.98-25.57,36.64v.12c.08.87-.32,1.71-1.03,2.21h0c-1.64,1.15-2.59,3.1-2.35,5.09.31,2.63,2.46,4.59,5.03,4.74h.12c.87.06,1.65.56,2.05,1.34l.05.1c7.67,14.84,24.92,22.29,41.02,17.72,16.1-4.57,26.85-19.98,25.58-36.64v-.12c-.08-.87.32-1.71,1.03-2.21h0c1.64-1.15,2.59-3.1,2.35-5.09-.31-2.63-2.46-4.59-5.03-4.74h-.12c-.87-.06-1.65-.56-2.05-1.34l-.05-.1c-7.67-14.84-24.92-22.29-41.02-17.72Z"/>
        <g>
          <circle class="cls-1" cx="238.11" cy="67.18" r="4.41"/>
          <circle class="cls-1" cx="262.88" cy="60.14" r="4.41"/>
        </g>
        <path class="cls-1" d="m251,86.6c-3.46,0-6.97-.86-10.21-2.66-.64-.36-.88-1.17-.52-1.82.36-.64,1.17-.88,1.82-.52,8.84,4.93,20.05,1.75,24.98-7.1.36-.64,1.17-.88,1.82-.52.64.36.88,1.17.52,1.82-3.84,6.9-11.02,10.79-18.41,10.79Z"/>
        <path class="cls-1" d="m241.78,50.29c-.27,0-.55-.08-.79-.26-3.78-2.76-4.61-8.08-1.85-11.86,2.29-3.14,6.72-3.84,9.86-1.54,2.63,1.92,3.21,5.63,1.29,8.26-1.63,2.23-4.76,2.72-6.98,1.09-.92-.67-1.52-1.66-1.7-2.79s.1-2.25.77-3.17c.43-.6,1.27-.73,1.87-.29.6.43.73,1.27.29,1.87-.25.34-.35.77-.29,1.19.07.42.29.79.64,1.04,1.04.76,2.5.53,3.25-.51,1.05-1.44.74-3.48-.71-4.53-.95-.69-2.11-.97-3.26-.79-1.16.18-2.18.8-2.87,1.75-1.89,2.59-1.32,6.24,1.27,8.13.6.43.73,1.27.29,1.87-.26.36-.67.55-1.08.55Z"/>
      </g>
    </g>
  </g>
</svg>