<?xml version="1.0" encoding="UTF-8"?>
<svg id="Layer_2" data-name="Layer 2" xmlns="http://www.w3.org/2000/svg" viewBox="0 0 128.23 128.23">
  <defs>
    <style>
      .cls-1 {
        fill: #0069dc;
      }

      .cls-1, .cls-2 {
        stroke-width: 0px;
      }

      .cls-2 {
        fill: #c6c1ea;
      }
    </style>
  </defs>
  <g id="Layer_1-2" data-name="Layer 1">
    <g>
      <circle class="cls-2" cx="64.11" cy="64.11" r="64.1"/>
      <path class="cls-2" d="m105.12,52.46c-.96-3.38-3.95-5.64-7.27-5.83-8.12-15.72-26.44-24.08-44.12-19.06s-28.86,21.77-27.51,39.41c-2.73,1.91-4.08,5.4-3.12,8.79s3.95,5.64,7.27,5.83c8.12,15.72,26.44,24.08,44.12,19.06,17.68-5.02,28.86-21.77,27.51-39.41,2.73-1.91,4.08-5.4,3.12-8.79Z"/>
      <g>
        <path class="cls-1" d="m75.22,103.23c-9.08,2.58-18.82,1.91-27.45-1.88-7.69-3.38-14.16-9.07-18.47-16.2-.4-.67-1.04-1.16-1.78-1.4-3.34-1.09-6-3.78-6.99-7.26s-.14-7.17,2.13-9.85c.51-.6.79-1.35.78-2.13-.08-8.32,2.43-16.57,7.2-23.49,5.34-7.76,13.28-13.45,22.36-16.03s18.82-1.91,27.45,1.88c7.69,3.38,14.16,9.07,18.47,16.2.4.67,1.04,1.16,1.78,1.4,3.34,1.09,6,3.78,6.99,7.26s.14,7.17-2.13,9.85c-.51.6-.79,1.35-.78,2.13.08,8.32-2.43,16.57-7.2,23.49-5.34,7.76-13.29,13.45-22.36,16.03ZM54.46,30.14c-16.1,4.57-26.85,19.98-25.57,36.64v.12c.08.87-.32,1.71-1.03,2.21h0c-1.64,1.15-2.59,3.1-2.35,5.09.31,2.63,2.46,4.59,5.03,4.74h.12c.87.06,1.65.56,2.05,1.34l.05.1c7.67,14.84,24.92,22.29,41.02,17.72,16.1-4.57,26.85-19.98,25.58-36.64v-.12c-.08-.87.32-1.71,1.03-2.21h0c1.64-1.15,2.59-3.1,2.35-5.09-.31-2.63-2.46-4.59-5.03-4.74h-.12c-.87-.06-1.65-.56-2.05-1.34l-.05-.1c-7.67-14.84-24.92-22.29-41.02-17.72Z"/>
        <g>
          <circle class="cls-1" cx="51.6" cy="67.18" r="4.41"/>
          <circle class="cls-1" cx="76.37" cy="60.14" r="4.41"/>
        </g>
        <path class="cls-1" d="m64.49,86.6c-3.46,0-6.97-.86-10.21-2.66-.64-.36-.88-1.17-.52-1.82.36-.64,1.17-.88,1.82-.52,8.84,4.93,20.05,1.75,24.98-7.1.36-.64,1.17-.88,1.82-.52.64.36.88,1.17.52,1.82-3.84,6.9-11.02,10.79-18.41,10.79Z"/>
        <path class="cls-1" d="m55.27,50.29c-.27,0-.55-.08-.79-.26-3.78-2.76-4.61-8.08-1.85-11.86,2.29-3.14,6.72-3.84,9.86-1.54,2.63,1.92,3.21,5.63,1.29,8.26-1.63,2.23-4.76,2.72-6.98,1.09-.92-.67-1.52-1.66-1.7-2.79s.1-2.25.77-3.17c.43-.6,1.27-.73,1.87-.29.6.43.73,1.27.29,1.87-.25.34-.35.77-.29,1.19.07.42.29.79.64,1.04,1.04.76,2.5.53,3.25-.51,1.05-1.44.74-3.48-.71-4.53-.95-.69-2.11-.97-3.26-.79-1.16.18-2.18.8-2.87,1.75-1.89,2.59-1.32,6.24,1.27,8.13.6.43.73,1.27.29,1.87-.26.36-.67.55-1.08.55Z"/>
      </g>
    </g>
  </g>
</svg>